<svg xmlns="http://www.w3.org/2000/svg" width="24" height="24" viewBox="0 0 24 24">
  <path fill="none" d="M0 0h24v24H0z"/>
  <path fill="#7ed8aa" d="M18 12a1 1 0 0 0 1 1h2a1 1 0 0 0 1-1 1 1 0 0 0-1-1h-2a1 1 0 0 0-1 1zM16.6 16.8a1 1 0 0 0 .2 1.4l1.6 1.2a1 1 0 0 0 1.4-.2 1 1 0 0 0-.2-1.4L18 16.6a1 1 0 0 0-1.4.2zM19.8 4.8a1 1 0 0 0-1.4-.2l-1.6 1.2a1 1 0 0 0-.2 1.4 1 1 0 0 0 1.4.2l1.6-1.2a1 1 0 0 0 .2-1.4z"/>
  <path fill="#00a651" d="M8 9H4a2 2 0 0 0-2 2v2a2 2 0 0 0 2 2h1v3a1 1 0 0 0 1 1 1 1 0 0 0 1-1v-3h1l5 3V6zM15.5 12A4.5 4.5 0 0 0 14 8.7v6.6a4.4 4.4 0 0 0 1.5-3.3z"/>
</svg>
